<?xml version="1.0" encoding="UTF-8"?>
<svg version="1.1" xmlns="http://www.w3.org/2000/svg" width="654" height="651">
<path d="M0 0 C1.00327332 -0.00705963 2.00654663 -0.01411926 3.04022217 -0.02139282 C45.02215158 -0.24965684 45.02215158 -0.24965684 64.21875 3.203125 C65.35505859 3.40180176 66.49136719 3.60047852 67.66210938 3.80517578 C93.20476711 8.38597214 117.47437996 15.76791232 141.21875 26.203125 C141.95851074 26.52216797 142.69827148 26.84121094 143.46044922 27.16992188 C170.06883222 38.71384772 195.6271241 55.4709577 216.96875 75.13671875 C218.9532182 76.95925986 220.97660892 78.71096058 223.03125 80.453125 C231.69744406 88.00962348 239.88343116 96.35274031 247.21875 105.203125 C247.65590332 105.71584961 248.09305664 106.22857422 248.54345703 106.75683594 C290.56856187 156.086468 318.11531771 222.86192073 318.421875 288.1171875 C318.42888931 289.12200668 318.43590363 290.12682587 318.44313049 291.16209412 C318.46052735 294.38415058 318.46698203 297.60602331 318.46875 300.828125 C318.46976212 302.47867386 318.46976212 302.47867386 318.47079468 304.16256714 C318.45529669 320.04771118 318.13773436 335.54393133 315.21875 351.203125 C315.04182617 352.18845215 314.86490234 353.1737793 314.68261719 354.18896484 C312.07546502 368.42923896 308.61744348 382.41136106 304.21875 396.203125 C303.94756348 397.05487305 303.67637695 397.90662109 303.39697266 398.78417969 C290.14285213 439.48725496 266.90369889 476.69391034 237.58837891 507.73193359 C235.60201536 509.86559254 233.6975396 512.06907367 231.78125 514.265625 C189.48129597 561.26557392 126.73832444 591.55192181 65.21875 602.203125 C64.25018066 602.38101563 63.28161133 602.55890625 62.28369141 602.7421875 C31.97476368 608.1390077 -2.52661607 607.69179753 -32.78125 602.203125 C-33.78446289 602.03151855 -34.78767578 601.85991211 -35.82128906 601.68310547 C-106.75228911 589.40025356 -175.57203593 550.77596081 -219.78125 493.203125 C-220.63021437 492.15284247 -221.48194007 491.10478794 -222.3359375 490.05859375 C-273.75352845 426.66136709 -294.29033236 344.41982721 -285.89111328 263.85742188 C-279.67984888 209.41404598 -258.6005764 158.24037639 -224.78125 115.203125 C-224.01167969 114.21957031 -223.24210937 113.23601562 -222.44921875 112.22265625 C-209.04904466 95.49054698 -193.7923351 79.27140758 -176.78125 66.203125 C-175.81445312 65.43097656 -174.84765625 64.65882812 -173.8515625 63.86328125 C-160.04125302 52.96312426 -145.32972793 43.42801621 -129.78125 35.203125 C-129.1507373 34.86861328 -128.52022461 34.53410156 -127.87060547 34.18945312 C-88.77971701 13.63744105 -44.41367261 0.20844995 0 0 Z " fill="#0C0C0B" transform="translate(307.78125,22.796875)"/>
<path d="M0 0 C8.18273713 6.14026428 13.65589193 13.79381436 15.8125 23.875 C17.01328689 35.43721607 15.5701858 45.14943006 8.5625 54.5625 C3.84982453 60.19962353 -1.31405115 65.26827834 -6.87890625 70.0546875 C-11.53810352 74.11212351 -15.85784464 78.47145973 -20.1875 82.875 C-28.60941957 91.44063834 -28.60941957 91.44063834 -33.15625 95.34375 C-37.91916514 99.43702757 -42.28464126 103.90146937 -46.6875 108.375 C-51.80507055 113.57471454 -56.94905075 118.6327021 -62.48144531 123.39111328 C-72.15590232 131.80573115 -79.47907714 143.46783302 -80.45874023 156.47680664 C-80.47106689 157.73356201 -80.48339355 158.99031738 -80.49609375 160.28515625 C-80.52128197 161.70247757 -80.54667952 163.11979518 -80.57226562 164.53710938 C-80.60073888 166.726143 -80.62480576 168.91511158 -80.64379883 171.10424805 C-80.83613176 189.73095306 -84.82806278 204.96249261 -94.6171875 221.0234375 C-96.10912423 223.73267585 -97.06754288 226.22964578 -97.9375 229.1875 C-98.35 230.404375 -98.7625 231.62125 -99.1875 232.875 C-102.44891605 231.78786132 -102.97865163 231.19471975 -105.0625 228.625 C-107.43082813 225.79018299 -109.88934451 223.16437818 -112.5703125 220.62890625 C-113.46194092 219.7776416 -113.46194092 219.7776416 -114.37158203 218.90917969 C-115.5718908 217.77116175 -116.78373589 216.6451765 -118.00732422 215.53222656 C-119.6875 213.92578125 -119.6875 213.92578125 -122.1875 210.875 C-122.1796875 208.2578125 -122.1796875 208.2578125 -121.1875 205.875 C-120.90132813 205.15441406 -120.61515625 204.43382812 -120.3203125 203.69140625 C-119.98773438 202.94761719 -119.65515625 202.20382812 -119.3125 201.4375 C-111.84927734 182.97010962 -112.18651637 164.07522708 -119.84765625 145.8046875 C-127.79198881 128.06381478 -142.01737607 114.92488187 -160.1875 107.875 C-178.46197458 101.69501574 -197.38696178 102.34849034 -215.109375 110.23828125 C-233.08563235 119.79672266 -244.88059946 134.21949126 -251.49609375 153.47265625 C-256.03570914 169.24589615 -254.65462683 187.90413734 -248.1875 202.875 C-247.80335938 203.81085938 -247.41921875 204.74671875 -247.0234375 205.7109375 C-239.63349515 222.04924542 -225.07548011 233.86685366 -208.5625 240.1875 C-193.77484003 245.09565495 -178.24478052 245.34372727 -163.12890625 241.328125 C-160.8275005 240.79097597 -158.67481616 240.63241278 -156.3125 240.5625 C-155.49007812 240.52511719 -154.66765625 240.48773438 -153.8203125 240.44921875 C-147.41748785 241.48469039 -142.35522703 247.13946992 -137.6875 251.375 C-137.03007812 251.94347656 -136.37265625 252.51195312 -135.6953125 253.09765625 C-135.08429688 253.65324219 -134.47328125 254.20882813 -133.84375 254.78125 C-133.28494141 255.27947266 -132.72613281 255.77769531 -132.15039062 256.29101562 C-131.67375977 257.07508789 -131.67375977 257.07508789 -131.1875 257.875 C-132.23430686 261.29123564 -133.26024283 261.92041991 -136.390625 263.875 C-137.73122668 264.55831557 -139.08087399 265.22407843 -140.4375 265.875 C-141.15623291 266.22457764 -141.87496582 266.57415527 -142.61547852 266.93432617 C-149.2840831 270.081696 -155.98680733 272.26267099 -163.1875 273.875 C-164.4559375 274.16117187 -165.724375 274.44734375 -167.03125 274.7421875 C-176.3358402 276.67014538 -185.4929584 277.29274666 -194.99389648 277.32104492 C-206.39053213 277.52596645 -215.15549597 281.85560508 -223.1875 289.875 C-230.81484005 298.98301454 -236.58078482 309.41261513 -242.54296875 319.64453125 C-246.29266764 326.07482157 -250.10237948 332.4674622 -253.94918823 338.84002686 C-254.68075505 340.05401748 -255.41009401 341.26935395 -256.13699341 342.48614502 C-264.43168036 356.36771836 -272.04453665 368.30384699 -287.98828125 373.45703125 C-298.51260762 375.45721406 -308.96066713 374.45828239 -318.1875 368.875 C-327.04164585 362.71231326 -331.8052336 355.0217992 -335.1875 344.875 C-336.59564632 327.69561489 -330.7821487 316.24305409 -321.55859375 302.0859375 C-318.02883803 296.66711836 -314.66095862 291.15717485 -311.3125 285.625 C-310.73306641 284.66956299 -310.15363281 283.71412598 -309.55664062 282.72973633 C-308.37082512 280.77435009 -307.18544444 278.81870009 -306.00048828 276.86279297 C-303.53312873 272.79660038 -301.05358057 268.73789078 -298.57470703 264.67871094 C-296.26311699 260.88936103 -293.95941752 257.09527041 -291.65869141 253.29931641 C-290.75203278 251.80527057 -289.84329875 250.31247911 -288.93115234 248.82177734 C-287.92560852 247.17751138 -286.93093442 245.52661043 -285.9375 243.875 C-285.43734375 243.05 -284.9371875 242.225 -284.421875 241.375 C-278.15693448 228.68651287 -280.54849615 214.89348801 -284.87695312 202.09106445 C-285.14185547 201.31077881 -285.40675781 200.53049316 -285.6796875 199.7265625 C-288.29457187 191.75886558 -289.3058233 183.73115883 -289.8190918 175.38964844 C-290.44618907 165.37301778 -291.44837215 156.8603864 -296.1875 147.875 C-296.68121094 146.92753906 -297.17492187 145.98007812 -297.68359375 145.00390625 C-304.43142379 133.33679485 -314.94289627 126.12021271 -325.88671875 118.78515625 C-330.35063582 115.78776512 -334.71213354 112.6592228 -339.0625 109.5 C-339.80781982 108.95915771 -340.55313965 108.41831543 -341.32104492 107.86108398 C-342.84064047 106.7577489 -344.35992589 105.65398656 -345.87890625 104.54980469 C-348.99608075 102.28840271 -352.12265501 100.04016949 -355.24902344 97.79150391 C-358.23029066 95.64395958 -361.20437723 93.48660241 -364.17773438 91.328125 C-366.01310001 90.00109679 -367.85684686 88.68677316 -369.703125 87.375 C-380.27329262 79.72623549 -389.04521372 71.19750522 -391.8671875 58.0625 C-393.40326663 47.57220347 -391.62425507 38.32034418 -385.375 29.625 C-384.33290604 28.35793787 -383.27040658 27.10736342 -382.1875 25.875 C-381.68605469 25.26914063 -381.18460938 24.66328125 -380.66796875 24.0390625 C-374.62420204 17.30415945 -365.65569579 12.46921678 -356.59375 11.63671875 C-339.46036443 11.19917261 -329.09657897 19.77678944 -316.1875 29.875 C-314.58775115 31.11394207 -312.98749939 32.35223509 -311.38671875 33.58984375 C-308.33209242 35.95669245 -305.28475085 38.33251296 -302.2421875 40.71484375 C-298.06526068 43.97993339 -293.83363698 47.16620828 -289.578125 50.328125 C-286.75460751 52.43602074 -283.96249346 54.58314436 -281.171875 56.734375 C-280.26026611 57.4351416 -279.34865723 58.1359082 -278.40942383 58.85791016 C-276.60696844 60.24456018 -274.80714523 61.63464125 -273.01049805 63.02880859 C-260.23449641 72.84048735 -248.26473376 80.87650956 -231.44726562 79.25048828 C-223.70146261 77.96342637 -216.16898443 75.16311227 -208.7578125 72.63110352 C-192.80265552 67.93760796 -172.09998029 69.35201223 -156.1875 73.875 C-144.90824078 77.04406626 -130.61814014 75.99746571 -120.1875 70.875 C-119.33929688 70.45863281 -118.49109375 70.04226562 -117.6171875 69.61328125 C-111.60532578 66.1945957 -106.71927147 61.75351363 -101.7265625 57.01953125 C-100.63147621 55.9849453 -100.63147621 55.9849453 -99.51426697 54.92945862 C-93.32123578 49.03645431 -87.27265614 43.00382871 -81.25390625 36.93359375 C-80.78572542 36.46162945 -80.31754459 35.98966515 -79.83517647 35.5033989 C-75.48535431 31.11689436 -71.14011852 26.7258939 -66.80688477 22.32299805 C-64.87075966 20.3562855 -62.93052791 18.39379279 -60.98582458 16.43556213 C-59.18187885 14.61867303 -57.38379062 12.79594053 -55.59291077 10.96617126 C-39.88027958 -4.81222602 -20.65121626 -13.36437569 0 0 Z " fill="#FAF8F8" transform="translate(507.1875,151.125)"/>
<path d="M0 0 C1.41720481 1.18319511 2.81305962 2.39238742 4.1875 3.625 C4.94675781 4.30304688 5.70601563 4.98109375 6.48828125 5.6796875 C19.76760677 18.22251261 27.86298519 35.4538508 28.59155273 53.73388672 C28.77933067 65.75441569 26.63084336 78.22140045 20.82421875 88.86328125 C19.96732912 91.23418446 20.33037468 92.26002392 21.1875 94.625 C22.85105064 96.68526476 22.85105064 96.68526476 24.9765625 98.671875 C25.75386719 99.435 26.53117188 100.198125 27.33203125 100.984375 C28.15058594 101.77328125 28.96914063 102.5621875 29.8125 103.375 C31.41131587 104.92976422 33.00769871 106.48703457 34.6015625 108.046875 C35.3126416 108.73362305 36.0237207 109.42037109 36.75634766 110.12792969 C38.66866829 112.09210075 40.44590559 114.07347611 42.22485352 116.15356445 C47.26141803 121.95454885 52.74114768 127.3227327 58.17578125 132.74609375 C59.326984 133.89797135 60.47803837 135.04999725 61.62895203 136.2021637 C64.02518555 138.59986213 66.42319505 140.99576582 68.82250977 143.39038086 C71.90049316 146.46262882 74.97391286 149.5393972 78.04604816 152.61749172 C80.41449342 154.98954233 82.78530493 157.3592163 85.15685081 159.72816658 C86.29191708 160.8625655 87.42624025 161.99770845 88.55980873 163.13360405 C90.13683529 164.71316085 91.71701512 166.28949282 93.2980957 167.86499023 C94.19631546 168.7624144 95.09453522 169.65983856 96.01997375 170.5844574 C98.01508044 172.65856906 98.01508044 172.65856906 100.1875 173.625 C100.1875 174.285 100.1875 174.945 100.1875 175.625 C101.51841573 176.29648011 102.85233644 176.96200641 104.1875 177.625 C110.55562508 183.10158757 119.65927144 191.51140391 120.42578125 200.3828125 C120.57719634 207.25227602 120.67412989 213.10801034 116.1875 218.625 C111.20625872 223.14208016 106.50705554 225.10144656 99.75812912 224.94740295 C91.75659781 223.94386755 85.65822655 217.66543732 80.26855469 212.16015625 C79.53400055 211.42618622 78.79944641 210.69221619 78.04263306 209.93600464 C75.63859828 207.52920367 73.24901721 205.10858419 70.859375 202.6875 C69.18115639 201.0018101 67.50204431 199.31700929 65.82208252 197.63305664 C61.41588216 193.21163897 57.02182094 188.77834855 52.63024902 184.34240723 C48.16179429 179.8330337 43.68200908 175.33494814 39.203125 170.8359375 C31.97200971 163.56971997 24.74788425 156.29664013 17.53268433 149.01461792 C11.97244778 143.40363202 6.40742308 137.82067637 0.625 132.4375 C-0.22094727 131.63795898 -0.22094727 131.63795898 -1.08398438 130.82226562 C-6.46283962 125.82087391 -9.81901939 124.28471413 -17.23046875 124.42578125 C-20.2424392 124.65817231 -22.94418532 125.30209351 -25.84375 126.11328125 C-43.86646676 130.79775723 -62.51617007 127.14934324 -78.62890625 118.53515625 C-97.13090371 107.43395778 -106.44831407 91.8699434 -112.35888672 71.76660156 C-116.41639031 52.6102929 -112.15967306 32.87313512 -101.8125 16.625 C-91.19749373 1.51517066 -76.04207583 -9.48362913 -57.8125 -13.375 C-37.0357676 -16.78538332 -16.99342049 -12.64967916 0 0 Z " fill="#DF2C2E" transform="translate(365.8125,268.375)"/>
<path d="M0 0 C8.38369176 4.23198667 14.04580506 10.74799624 17.85546875 19.265625 C20.45795801 27.53056158 19.59683193 35.85497948 16.3125 43.8046875 C11.37661948 52.73691097 3.96352648 58.97469063 -5.39453125 62.75390625 C-15.97815419 64.69423712 -24.36688754 63.58268936 -33.5546875 57.96875 C-41.25690865 52.52961887 -46.47374462 44.79781137 -48.14453125 35.44140625 C-49.11262217 26.66808233 -47.37594169 18.89808627 -42.15625 11.69921875 C-30.73500241 -1.59598138 -16.92583162 -6.41705902 0 0 Z " fill="#FAF8F7" transform="translate(337.14453125,294.55859375)"/>
</svg>
